<svg width="100" height="100" viewBox="0 0 100 100" xmlns="http://www.w3.org/2000/svg">
  <rect x="0" y="0" width="100" height="100" fill="#263238" />
  <g stroke="#80d8ff" stroke-width="2" stroke-linecap="round" fill="#263238">
    <g id="head">
      <g id="ears">
        <path d="M 60,55 q 0,-15 -12,-20 q -3,10 0,20" />
        <path d="M 70,55 q 0,-15 12,-20 q 3,10 0,20" />
      </g>
      <g id="whiskers">
        <path d="M 50,60 l -20,-1" />
        <path d="M 50,65 l -17,0" />
        <path d="M 50,70 l -20,1" />
        <path d="M 80,60 l 20,-1" />
        <path d="M 80,65 l 17,0" />
        <path d="M 80,70 l 20,1" />
      </g>
      <g id="face">
        <path d="M 65,45 c 20,0 20,0 20,20 c 0,20 0,20 -20,20 c -20,0 -20,0 -20,-20 c 0,-20 0,-20 20,-20 Z" />
      </g>
      <g id="eyes">
        <circle cx="57" cy="60" r="1" />
        <circle cx="73" cy="60" r="1" />
      </g>
      <g id="mouth">
        <path d="M 60,73 q 2,2 5,2 q 3,0 5,-2" />
      </g>
    </g>
    <g id="neck">
      <path d="M 60,85 l 0,5" />
      <path d="M 70,85 l 0,5" />
    </g>
    <g id="body">
      <path d="M 65,90 c 20,0 20,0 20,20 c 0,20 0,20 -20,20 c -20,0 -20,0 -20,-20 c 0,-20 0,-20 20,-20 Z" />
    </g>
  </g>
</svg>
